<svg width="38" height="22" fill="none" xmlns="http://www.w3.org/2000/svg"><path d="M2.112 16c-.235 0-.416-.059-.544-.176-.117-.128-.176-.31-.176-.544V5.44c0-.235.059-.41.176-.528.128-.128.31-.192.544-.192h5.952c.181 0 .32.048.416.144a.54.54 0 01.144.4c0 .181-.048.32-.144.416-.096.096-.235.144-.416.144H2.672v3.904h5.056c.181 0 .32.048.416.144.096.085.144.219.144.4 0 .181-.048.32-.144.416-.096.096-.235.144-.416.144H2.672v4.064h5.392c.181 0 .32.048.416.144a.54.54 0 01.144.4c0 .181-.048.32-.144.416-.096.096-.235.144-.416.144H2.112zm9.232.112c-.202 0-.357-.053-.464-.16-.107-.117-.16-.283-.16-.496V5.28c0-.213.053-.379.16-.496a.536.536 0 01.416-.176c.17 0 .293.032.368.096.085.053.181.155.288.304l6.976 9.296h-.384V5.248c0-.203.053-.357.16-.464.107-.117.261-.176.464-.176.192 0 .336.059.432.176.107.107.16.261.16.464v10.224c0 .203-.048.363-.144.48-.085.107-.213.16-.384.16a.682.682 0 01-.384-.096 1.355 1.355 0 01-.304-.304l-6.96-9.296h.368v9.04c0 .213-.053.379-.16.496-.107.107-.256.16-.448.16z" fill="#404040"/><path d="M29 9.5l3 3 3-3" stroke="#404040" stroke-linecap="round" stroke-linejoin="round"/></svg>