<svg width="218" height="33" fill="none" xmlns="http://www.w3.org/2000/svg"><g clip-path="url(#clip0_258_405)" fill="#DF0526"><path d="M77.195 11.415h7.612c3.11 0 5.746 1.023 7.907 3.07 2.162 2.046 3.24 4.622 3.24 7.723 0 3.1-1.074 5.68-3.224 7.722-2.15 2.047-4.793 3.07-7.923 3.07h-7.612V11.415zm4.324 17.574h3.288c1.984 0 3.616-.603 4.9-1.805 1.284-1.203 1.925-2.864 1.925-4.98 0-2.117-.64-3.778-1.925-4.98-1.284-1.203-2.916-1.806-4.9-1.806h-3.288V28.99zm22.545.062l-1.565 3.945h-4.79l9.019-21.581h2.537l8.895 21.581h-4.789l-1.565-3.945h-7.742zm3.885-9.929l-2.379 5.89h4.73l-2.347-5.89h-.004zM144.31 33h-4.324V19.216l-6.607 8.076-6.576-8.076v13.78h-4.323V11.415h2.568l8.331 10.298 8.362-10.298h2.569V33zm6.576-21.585h7.611c3.11 0 5.746 1.023 7.908 3.07 2.161 2.046 3.24 4.622 3.24 7.723 0 3.1-1.075 5.68-3.225 7.722-2.149 2.047-4.793 3.07-7.923 3.07h-7.611V11.415zm4.323 17.574h3.288c1.984 0 3.616-.603 4.9-1.805 1.285-1.203 1.925-2.864 1.925-4.98 0-2.117-.64-3.778-1.925-4.98-1.284-1.203-2.916-1.806-4.9-1.806h-3.288V28.99zm22.549.062l-1.565 3.945h-4.789l9.018-21.581h2.537l8.896 21.581h-4.79l-1.565-3.945h-7.742zm3.885-9.929l-2.379 5.89h4.73l-2.347-5.89h-.004zM218 33h-4.323V19.216l-6.608 8.076-6.576-8.076v13.78h-4.323V11.415h2.569l8.33 10.298 8.362-10.298H218V33zM46.24 8.602H0l10.034 8.641h33.729c1.652 0 2.991 1.319 2.991 2.945v.16c0 1.626-1.34 2.945-2.991 2.945H21.059l9.738 9.073H46.24c6.607 0 11.962-5.272 11.962-11.777v-.21c0-6.505-5.355-11.777-11.962-11.777z"/><path d="M59.748 25.417h-5.35L42.422 14.26h14.879c1.11 0 2.015-.89 2.015-1.984 0-1.093-.905-1.984-2.015-1.984H23.225L11.275 0h48.473c7.058 0 12.804 5.653 12.804 12.605v.21c0 6.95-5.742 12.606-12.804 12.606v-.004zm-4.683-1.653h4.683c6.133 0 11.125-4.914 11.125-10.952v-.21c0-6.039-4.992-10.952-11.125-10.952H15.74l8.113 6.991h33.445c2.035 0 3.691 1.63 3.691 3.634 0 2.003-1.656 3.634-3.691 3.634H46.636l8.43 7.855z"/></g><defs><clipPath id="clip0_258_405"><path fill="#fff" d="M0 0h218v33H0z"/></clipPath></defs></svg>