<svg width="17" height="16" fill="none" xmlns="http://www.w3.org/2000/svg"><path d="M7.437.02A6.945 6.945 0 00.5 6.957a6.945 6.945 0 006.937 6.937c1.17 0 2.32-.277 3.29-.812.078.093.165.18.258.257l1.982 1.982a2.02 2.02 0 102.854-2.854l-1.982-1.982a1.977 1.977 0 00-.317-.258c.535-.97.872-2.1.872-3.29A6.945 6.945 0 007.457 0l-.02.02zm0 1.982c2.755 0 4.955 2.2 4.955 4.955 0 1.308-.475 2.517-1.308 3.41l-.06.059a1.95 1.95 0 00-.257.257c-.872.793-2.061 1.249-3.35 1.249a4.932 4.932 0 01-4.955-4.955c0-2.755 2.2-4.955 4.955-4.955l.02-.02z" fill="#fff"/></svg>