<svg width="41" height="40" fill="none" xmlns="http://www.w3.org/2000/svg"><g clip-path="url(#clip0_258_368)"><path d="M30.5 25a1.667 1.667 0 113.335.001A1.667 1.667 0 0130.5 25zM8.833 23.333a1.667 1.667 0 10.002 3.335 1.667 1.667 0 00-.002-3.335zm31.667-10v12.5a5.843 5.843 0 01-3.333 5.27v3.063A4.171 4.171 0 0133 38.334a4.171 4.171 0 01-4.167-4.166v-2.5H12.167v2.5A4.171 4.171 0 018 38.332a4.171 4.171 0 01-4.167-4.166v-3.064A5.843 5.843 0 01.5 25.833v-12.5a1.67 1.67 0 011.667-1.667h1.79c1.116-2.228 2.295-4.231 3.526-5.99a7.618 7.618 0 014.484-3.056c1.831-.435 4.8-.952 8.531-.952 3.732 0 6.702.519 8.532.952a7.625 7.625 0 014.483 3.057c1.234 1.76 2.412 3.761 3.527 5.99h1.79c.92 0 1.667.748 1.667 1.666h.003zM2.272 19.855c2.95-.415 11.45-1.522 18.226-1.522 6.777 0 15.277 1.107 18.227 1.522-1.94-5.319-4.152-9.765-6.575-13.222a5.974 5.974 0 00-3.505-2.393c-1.747-.413-4.577-.907-8.148-.907-3.572 0-6.402.494-8.149.907a5.974 5.974 0 00-3.505 2.393C6.42 10.09 4.208 14.537 2.268 19.855h.004zm8.226 11.811H6.333a5.72 5.72 0 01-.833-.06v2.56c0 1.379 1.122 2.5 2.5 2.5s2.5-1.121 2.5-2.5l-.002-2.5zm25-.06c-.271.039-.55.06-.833.06h-4.167v2.5c0 1.379 1.122 2.5 2.5 2.5 1.379 0 2.5-1.121 2.5-2.5v-2.56zm3.334-10.053C36.298 21.19 27.46 20 20.498 20c-6.961 0-15.8 1.19-18.333 1.553v4.28A4.171 4.171 0 006.332 30h28.335a4.171 4.171 0 004.166-4.167l-.001-4.28z" fill="#404040"/></g><defs><clipPath id="clip0_258_368"><path fill="#fff" transform="translate(.5)" d="M0 0h40v40H0z"/></clipPath></defs></svg>