<svg width="41" height="40" fill="none" xmlns="http://www.w3.org/2000/svg"><path d="M36.956 14.063a3.02 3.02 0 00-1.53.414v-.833A3.048 3.048 0 0032.38 10.6a3.048 3.048 0 00-3.044 3.044v3.504H10.664v-3.504A3.048 3.048 0 007.619 10.6a3.048 3.048 0 00-3.044 3.044v.833a3.025 3.025 0 00-1.53-.414A3.048 3.048 0 000 17.107v5.786a3.048 3.048 0 003.044 3.044 3.02 3.02 0 001.53-.414v.833A3.048 3.048 0 007.62 29.4a3.048 3.048 0 003.044-3.044v-3.505h18.673v3.505a3.048 3.048 0 003.045 3.044 3.048 3.048 0 003.044-3.044v-.833c.45.263.973.414 1.53.414A3.048 3.048 0 0040 22.893v-5.786a3.047 3.047 0 00-3.044-3.044zM3.044 24.424c-.844 0-1.53-.687-1.53-1.53v-5.787c0-.844.686-1.53 1.53-1.53s1.53.686 1.53 1.53v5.786a1.531 1.531 0 01-1.53 1.531zm6.106 1.933a1.531 1.531 0 01-3.061 0V13.643a1.531 1.531 0 013.061 0v12.713zm1.514-5.019v-2.676h18.673v2.676H10.663zm23.247 5.018c0 .845-.686 1.531-1.53 1.531s-1.53-.686-1.53-1.53V13.644c0-.844.686-1.531 1.53-1.531s1.53.687 1.53 1.53v12.714zm4.575-3.463c0 .844-.686 1.531-1.53 1.531s-1.53-.687-1.53-1.53v-5.787c0-.844.686-1.53 1.53-1.53s1.53.686 1.53 1.53v5.786z" fill="#404040"/></svg>