<svg width="41" height="40" fill="none" xmlns="http://www.w3.org/2000/svg"><g clip-path="url(#clip0_258_362)"><path d="M28.495 2.792a4.174 4.174 0 00-5.322-2.53L21.605.82a4.14 4.14 0 00-2.367 2.135 4.159 4.159 0 00-.403 1.632v-.422a4.171 4.171 0 00-4.167-4.167H4.667A4.174 4.174 0 00.5 4.167V40h18.333V4.917c.017.41.095.82.237 1.216l11.675 33.904 9.743-3.33L28.495 2.792zM17.167 4.167v4.166H10.5V1.667h4.167c1.378 0 2.5 1.121 2.5 2.5zM10.5 10h6.667v20H10.5V10zM8.833 30H2.167V10h6.666v20zM4.667 1.667h4.166v6.666H2.167V4.167c0-1.379 1.121-2.5 2.5-2.5zm-2.5 30h6.666v6.666H2.167v-6.666zm8.333 6.666v-6.666h6.667v6.666H10.5zm25.198-10.175l-6.485 2.305-6.571-19.083 6.328-2.248 6.728 19.026zM20.742 3.672a2.494 2.494 0 011.421-1.284l1.569-.556a2.505 2.505 0 013.193 1.517l1.49 4.213-6.317 2.243-1.455-4.223a2.484 2.484 0 01.099-1.91zm9.015 28.366l6.498-2.31 2.103 5.947-6.575 2.247-2.026-5.882v-.002z" fill="#404040"/></g><defs><clipPath id="clip0_258_362"><path fill="#fff" transform="translate(.5)" d="M0 0h40v40H0z"/></clipPath></defs></svg>