<svg width="40" height="40" fill="none" xmlns="http://www.w3.org/2000/svg"><g clip-path="url(#clip0_258_326)"><path d="M30 40H17.615s.718-2.18.718-4.167a4.171 4.171 0 00-4.166-4.166A4.171 4.171 0 0010 35.833c0 1.689.718 4.167.718 4.167H0V14.167A4.171 4.171 0 014.167 10h4.848c-.422-1.613-.682-3.172-.682-4.167A5.84 5.84 0 0114.167 0 5.84 5.84 0 0120 5.833c0 .995-.258 2.554-.682 4.167h6.515A4.171 4.171 0 0130 14.167v4.848c1.615-.423 3.173-.682 4.167-.682A5.84 5.84 0 0140 24.167 5.84 5.84 0 0134.167 30c-.994 0-2.552-.258-4.167-.682V40zm-10.3-1.667h8.633V27.095s3.505 1.238 5.834 1.238a4.171 4.171 0 004.166-4.166A4.171 4.171 0 0034.167 20c-1.774 0-5.834 1.238-5.834 1.238v-7.071c0-1.379-1.121-2.5-2.5-2.5h-8.74s1.24-3.889 1.24-5.834a4.171 4.171 0 00-4.166-4.166A4.171 4.171 0 0010 5.833c0 2.03 1.24 5.834 1.24 5.834H4.167a2.503 2.503 0 00-2.5 2.5v24.166h6.966c-.193-.991-.3-1.871-.3-2.5A5.84 5.84 0 0114.167 30 5.84 5.84 0 0120 35.833c0 .629-.107 1.509-.3 2.5z" fill="#404040"/></g><defs><clipPath id="clip0_258_326"><path fill="#fff" d="M0 0h40v40H0z"/></clipPath></defs></svg>