<svg width="41" height="40" fill="none" xmlns="http://www.w3.org/2000/svg"><path d="M6.667 33.333V16.667A6.667 6.667 0 0113.333 10h13.334a6.667 6.667 0 016.666 6.667v16.666A3.334 3.334 0 0130 36.667H10a3.333 3.333 0 01-3.333-3.334v0zM15 10V6.667a3.333 3.333 0 013.333-3.334h3.334A3.333 3.333 0 0125 6.667V10" stroke="#404040" stroke-width="2" stroke-linecap="round" stroke-linejoin="round"/><path d="M13.333 35v-8.333a3.333 3.333 0 013.334-3.334h6.666a3.333 3.333 0 013.334 3.334V35M13.333 16.667h13.334M13.333 30h13.334" stroke="#404040" stroke-width="2" stroke-linecap="round" stroke-linejoin="round"/></svg>