<svg width="45" height="40" fill="none" xmlns="http://www.w3.org/2000/svg"><path fill-rule="evenodd" clip-rule="evenodd" d="M24.634 9.255a1.991 1.991 0 01.417.592c.108.239-.02 1.395-.02 1.653H27c0-.37-.062-1.635-.183-1.986a3.472 3.472 0 00-.438-.854 3.679 3.679 0 00-.532-.606 3.98 3.98 0 00-1.278-.78 4.26 4.26 0 00-3.013 0 3.98 3.98 0 00-1.278.78c-.201.184-.38.387-.532.606a3.503 3.503 0 00-.438.854c-.12.35-.183 1.617-.183 1.986h1.969c0-.258-.128-1.414-.02-1.653a1.911 1.911 0 01.467-.638c.2-.183.437-.328.698-.427a2.328 2.328 0 011.647 0 2.175 2.175 0 01.748.473z" fill="#404040"/><path fill-rule="evenodd" clip-rule="evenodd" d="M40.228 24.95c-1.057-3.138-2.541-5.904-4.25-7.656-3.49-3.577-8.124-4.865-13.478-4.865-5.354 0-9.988 1.288-13.478 4.865-1.709 1.752-3.193 4.518-4.25 7.655-.792 2.352-1.306 4.8-1.51 6.997h38.477c-.205-2.198-.72-4.645-1.511-6.997zm3.555 6.996c-.48-5.565-2.799-12.448-6.354-16.093-4.009-4.11-9.26-5.478-14.929-5.478-5.669 0-10.92 1.369-14.929 5.478-3.555 3.645-5.875 10.528-6.354 16.093A24.46 24.46 0 001.125 34h42.75c0-.657-.031-1.345-.092-2.054z" fill="#404040"/><path fill-rule="evenodd" clip-rule="evenodd" d="M0 33.438c0-.311.593-.563 1.324-.563h42.352c.731 0 1.324.252 1.324.563 0 .31-.593.562-1.324.562H1.325C.593 34 0 33.748 0 33.437z" fill="#404040"/></svg>