<svg width="41" height="40" fill="none" xmlns="http://www.w3.org/2000/svg"><g clip-path="url(#clip0_258_346)"><path d="M40 12.733v14.444c0 1.058-.588 2.01-1.533 2.481a2.765 2.765 0 01-2.907-.262l-3.893-3.878v.317c0 4.135-3.365 7.5-7.5 7.5H7.5c-4.135 0-7.5-3.365-7.5-7.5V14.168c0-4.135 3.365-7.5 7.5-7.5h16.667c4.135 0 7.5 3.365 7.5 7.5v.262l3.801-3.835c.939-.713 2.05-.815 2.999-.342A2.758 2.758 0 0140 12.735v-.002zm-10 1.433a5.84 5.84 0 00-5.833-5.833H7.5a5.84 5.84 0 00-5.833 5.833v11.667A5.84 5.84 0 007.5 31.667h16.667A5.84 5.84 0 0030 25.832V14.167zm8.333-1.433c0-.428-.23-.8-.613-.992a1.095 1.095 0 00-1.162.104l-4.893 4.95v6.368l4.982 4.977c.253.18.686.221 1.071.028.384-.191.614-.561.614-.991V12.732h.001z" fill="#404040"/></g><defs><clipPath id="clip0_258_346"><path fill="#fff" d="M0 0h40v40H0z"/></clipPath></defs></svg>